<svg xmlns="http://www.w3.org/2000/svg" viewBox="0 0 512 512"><path d="M484.267 239.303v-50.351c0-27.906-22.707-50.61-50.62-50.61a50.397 50.397 0 00-17.341 3.06c-1.623-26.465-23.656-47.502-50.52-47.502-27.915 0-50.625 22.713-50.625 50.631v94.778H196.834v-94.778c0-27.918-22.71-50.631-50.626-50.631-26.863 0-48.897 21.036-50.519 47.502a50.397 50.397 0 00-17.341-3.06c-27.912 0-50.62 22.703-50.62 50.61v50.358H0v33.391h27.729v50.337c0 27.918 22.707 50.631 50.62 50.631 6.088 0 11.93-1.082 17.342-3.061 1.627 26.46 23.659 47.492 50.518 47.492 27.916 0 50.626-22.713 50.626-50.631v-94.768h118.327v94.768c0 27.918 22.71 50.631 50.625 50.631 26.86 0 48.891-21.032 50.518-47.492a50.376 50.376 0 0017.342 3.061c27.912 0 50.62-22.713 50.62-50.631v-50.343l27.725.007.008-33.392-27.733-.007zM95.583 323.038c0 9.505-7.731 17.24-17.234 17.24-9.5 0-17.229-7.733-17.229-17.24V188.952c0-9.494 7.728-17.219 17.229-17.219 9.503 0 17.234 7.723 17.234 17.219v134.086zm67.862 44.43c0 9.506-7.731 17.24-17.235 17.24-9.503 0-17.234-7.733-17.234-17.24V144.532c0-9.506 7.731-17.24 17.234-17.24 9.504 0 17.235 7.733 17.235 17.24v222.936zm219.577-178.516v178.516c0 9.506-7.731 17.24-17.234 17.24s-17.234-7.733-17.234-17.24V144.532c0-9.506 7.731-17.24 17.234-17.24s17.234 7.733 17.234 17.24v44.42zm67.854 134.085c0 9.506-7.728 17.24-17.229 17.24-9.503 0-17.234-7.733-17.234-17.24V188.952c0-9.494 7.731-17.219 17.234-17.219 9.5 0 17.229 7.723 17.229 17.219v134.085z"/></svg>