<svg fill="#333" xmlns="http://www.w3.org/2000/svg" viewBox="0 0 504.272 504.272"><path d="M491.713 367.094c-4.863-4.863-10.587-8.193-16.63-9.996 11.676-15.375 10.462-36.745-3.657-50.864-15.457-15.457-39.608-15.457-55.064 0l-13.525 13.525-68.106-68.106 68.046-68.046 13.584 13.465c6.762 7.728 16.423 11.592 27.049 11.592 10.626 0 19.321-5.796 27.049-12.559 7.728-6.762 11.592-17.389 11.592-27.049 0-8.165-2.772-16.326-8.294-23.325 6.417-1.454 12.54-4.437 16.988-9.52l1.932-1.932c14.491-14.491 14.491-37.675 0-52.166l-69.555-69.555c-15.457-15.457-39.608-15.457-55.064 0-5.029 5.029-8.41 10.98-10.167 17.251-15.426-12.334-37.295-11.328-51.659 3.036-15.457 15.457-15.457 39.608 0 55.064l14.069 13.946-67.684 67.684-69.012-69.012 13.465-13.584c7.728-6.762 11.592-16.423 11.592-27.049s-3.864-20.287-11.592-27.049c-6.762-7.728-16.423-11.592-27.049-11.592-7.897 0-15.793 2.586-22.634 7.75-1.743-6.329-5.14-12.339-10.211-17.41-15.457-15.457-39.608-15.457-55.064 0L13.525 80.181c-15.457 15.457-15.457 39.608 0 55.064 4.914 4.914 10.61 8.259 16.589 10.048-11.633 15.371-10.405 36.709 3.698 50.812 7.728 7.728 17.389 11.592 27.049 11.592s19.321-3.864 27.049-10.626l13.946-14.069 68.65 68.65-69.072 69.072L87.909 307.2c-6.762-7.728-17.389-11.592-27.049-11.592s-19.321 3.864-27.049 11.592c-7.728 6.762-11.592 16.423-11.592 27.049 0 8.206 2.799 16.407 8.375 23.428-6.559 1.688-12.797 5.145-18.035 10.383l-.966.966c-14.491 14.491-14.491 38.642 0 53.132l71.487 71.487c6.762 6.762 16.423 10.626 25.117 10.626 9.66 0 18.355-3.864 25.117-10.626l2.898-1.932c5.238-5.238 8.695-11.477 10.383-18.035 7.022 5.576 15.223 8.375 23.428 8.375 9.66 0 20.287-3.864 27.049-10.626 15.457-15.457 15.457-39.608 0-55.064l-13.525-13.525 69.072-69.072 68.106 68.106-13.525 13.524c-7.728 6.762-11.592 16.423-11.592 27.049 0 9.66 4.83 19.321 11.592 27.049 6.762 7.728 16.423 11.592 27.049 11.592 8.102 0 16.874-2.729 23.486-8.165 1.707 6.482 5.143 12.643 10.325 17.825l3.864 3.864c5.796 6.762 14.491 9.66 23.185 9.66s17.389-3.864 24.151-10.626l73.419-73.419c14.491-14.491 14.491-37.675 0-52.166l-.966-.965zM381.585 27.049c3.864-3.864 8.694-5.796 13.525-5.796 5.796 0 10.626 1.932 13.524 6.762l69.555 69.555c6.762 6.762 6.762 17.389 0 24.151l-.966.966c-5.672 6.482-15.413 7.505-22.969 3.113l-75.882-75.882c-1.709-2.928-2.583-6.133-2.583-9.345 0-4.83 1.932-9.66 5.796-13.524zm-60.86 47.336c-7.728-7.728-7.728-19.321 0-27.049 3.864-3.864 8.694-5.796 13.525-5.796s9.66 1.932 13.525 5.796l109.162 109.162c3.864 3.864 5.796 8.694 5.796 13.525s-1.932 9.66-5.796 13.525c-6.762 7.728-19.321 7.728-27.049 0l-13.525-13.525L334.25 87.91l-13.525-13.525zm12.558 41.54l55.064 55.064-67.14 67.14-55.064-55.064 67.14-67.14zM27.049 94.672l67.623-68.589c3.864-3.864 8.694-5.796 13.525-5.796 5.796 0 10.626 1.932 14.491 5.796 7.205 7.205 7.686 17.766 1.456 25.426l-73.854 73.2c-7.393 4.536-16.698 3.555-23.241-2.988-7.728-7.729-7.728-19.321 0-27.049zm47.336 87.909c-7.728 7.728-19.321 7.728-27.049 0-7.728-7.728-7.728-19.321 0-27.049l16.561-16.561a53.707 53.707 0 004.692-3.726l68.589-68.589a40.721 40.721 0 004.758-5.724l14.563-14.563c3.864-3.864 8.694-5.796 13.525-5.796s9.66 1.932 13.525 5.796c3.864 3.864 5.796 8.694 5.796 13.525s-1.932 9.66-5.796 13.525l-13.525 13.525-82.113 82.113-13.526 13.524zm68.106-40.573l27.532-27.049 68.741 68.437-.152.152 82.113 82.113.334-.334 67.289 66.991-55.064 55.064L115.32 169.418l27.171-27.41zm-19.804 335.215l-2.898 2.898c-5.796 5.796-16.423 5.796-22.219 0L26.083 409.6c-6.762-7.728-6.762-19.321 0-26.083l.966-.966c3.864-3.864 8.694-5.796 13.525-5.796s9.66.966 13.525 4.83l68.589 68.589c7.727 7.728 7.727 19.32-.001 27.049zm60.86-47.336c7.728 7.728 7.728 19.321 0 27.049-7.728 7.728-19.321 7.728-27.049 0l-20.285-20.285-.002-.002-68.588-68.589-20.287-20.287c-3.864-3.864-5.796-8.694-5.796-13.525s1.932-9.66 5.796-13.525c3.864-3.864 8.694-5.796 13.525-5.796 4.83 0 9.66 1.932 13.524 5.796l13.525 13.525 82.113 82.113 13.524 13.526zm55.064-109.162l-68.589 68.589-55.064-55.064 69.555-68.589.003.003 54.095 55.061zm82.114 135.245c-3.864-3.864-5.796-8.694-5.796-13.525s1.932-9.66 5.796-13.525l13.525-13.525 82.113-82.113 13.524-13.524c3.864-3.864 8.694-5.796 13.525-5.796s9.66 1.932 13.525 5.796c7.728 7.728 7.728 19.321 0 27.049l-20.286 20.286-.001.001-34.294 34.294-54.581 54.581c-6.764 7.729-19.322 7.729-27.05.001zm158.43-48.302l-73.419 73.419c-5.796 5.796-14.491 5.796-20.287 0l-3.864-3.864c-7.728-7.728-7.728-19.321 0-27.049l34.776-34.776 37.194-36.541c3.137-2.036 6.638-3.068 10.144-3.068 4.83 0 9.66 1.932 14.491 6.762l.966.966c6.761 6.762 6.761 17.389-.001 24.151z"/></svg>