<svg xmlns="http://www.w3.org/2000/svg" viewBox="0 0 512 512"><path d="M168.757 366.805c0 7.633-6.245 13.878-13.878 13.878H97.292c-7.633 0-13.878-6.245-13.878-13.878V145.196c0-7.633 6.245-13.878 13.878-13.878h57.587c7.633 0 13.878 6.245 13.878 13.878v221.609zm174.486-221.609c0-7.633 6.245-13.878 13.878-13.878h57.587c7.633 0 13.878 6.245 13.878 13.878v221.609c0 7.633-6.245 13.878-13.878 13.878h-57.587c-7.633 0-13.878-6.245-13.878-13.878V145.196z" fill="#cee8fa"/><path d="M498.122 242.123c7.665 0 13.878-6.213 13.878-13.878v-33.192c0-15.304-12.451-27.756-27.756-27.756h-41.781v-22.102c0-15.304-12.451-27.756-27.756-27.756H357.12c-15.304 0-27.756 12.451-27.756 27.756v62.694h-146.73v-62.694c0-15.304-12.451-27.756-27.756-27.756H97.292c-15.304 0-27.756 12.451-27.756 27.756v22.102h-41.78C12.451 167.298 0 179.749 0 195.053v33.192c0 7.665 6.213 13.878 13.878 13.878s13.878-6.213 13.878-13.878v-33.192h41.781v121.893H27.756v-33.192c0-7.665-6.213-13.878-13.878-13.878S0 276.09 0 283.755v33.192c0 15.304 12.451 27.756 27.756 27.756h41.781v22.102c0 15.304 12.451 27.756 27.756 27.756h57.587c15.304 0 27.756-12.451 27.756-27.756V304.11H256c7.665 0 13.878-6.213 13.878-13.878s-6.213-13.878-13.878-13.878h-73.365v-40.708h146.73v131.158c0 15.305 12.451 27.756 27.756 27.756h57.587c15.304 0 27.756-12.451 27.756-27.756v-22.102h41.781c15.304 0 27.756-12.451 27.756-27.756v-33.192c0-7.665-6.213-13.878-13.878-13.878s-13.878 6.213-13.878 13.878v33.192h-41.781V195.053h41.781v33.192c-.001 7.665 6.212 13.878 13.877 13.878zM97.292 366.805v-48.078c.037-.591.09-1.178.09-1.779V195.053c0-.601-.053-1.188-.09-1.779v-48.08h57.587l.003 221.609h-57.59v.002zm259.829 0V145.196h57.587v48.067c-.039.595-.09 1.187-.09 1.79v121.893c0 .615.053 1.216.092 1.821v48.037h-57.589v.001z" fill="#2d527c"/></svg>