<svg fill="#333" xmlns="http://www.w3.org/2000/svg" viewBox="0 0 512 512"><path d="M185.86 0H42.837C23.18 0 5.953 15.183 5.953 34.846v143.023c0 19.663 17.227 36.456 36.884 36.456H185.86c19.657 0 34.419-16.794 34.419-36.456V34.846C220.279 15.183 205.517 0 185.86 0zm10.605 177.869c0 6.523-4.076 12.643-10.605 12.643H42.837c-6.529 0-13.07-6.119-13.07-12.643V34.846c0-6.524 6.541-11.032 13.07-11.032H185.86c6.529 0 10.605 4.509 10.605 11.032v143.023zM185.86 297.674H42.837c-19.657 0-36.884 15.183-36.884 34.846v143.023C5.953 495.206 23.18 512 42.837 512H185.86c19.657 0 34.419-16.794 34.419-36.456V332.521c0-19.663-14.762-34.847-34.419-34.847zm10.605 177.87c0 6.523-4.076 12.643-10.605 12.643H42.837c-6.529 0-13.07-6.119-13.07-12.643V332.521c0-6.524 6.541-11.032 13.07-11.032H185.86c6.529 0 10.605 4.509 10.605 11.032v143.023zM471.628 0H328.605c-19.657 0-36.884 15.183-36.884 34.846v143.023c0 19.663 17.227 36.456 36.884 36.456h143.023c19.657 0 34.419-16.794 34.419-36.456V34.846C506.047 15.183 491.285 0 471.628 0zm10.605 177.869c0 6.523-4.075 12.643-10.605 12.643H328.605c-6.529 0-13.07-6.119-13.07-12.643V34.846c0-6.524 6.541-11.032 13.07-11.032h143.023c6.529 0 10.605 4.509 10.605 11.032v143.023zm-10.605 119.805H328.605c-19.657 0-36.884 15.183-36.884 34.846v143.023c0 19.663 17.227 36.456 36.884 36.456h143.023c19.657 0 34.419-16.794 34.419-36.456V332.521c0-19.663-14.762-34.847-34.419-34.847zm10.605 177.87c0 6.523-4.075 12.643-10.605 12.643H328.605c-6.529 0-13.07-6.119-13.07-12.643V332.521c0-6.524 6.541-11.032 13.07-11.032h143.023c6.529 0 10.605 4.509 10.605 11.032v143.023z"/></svg>