<svg xmlns="http://www.w3.org/2000/svg" viewBox="0 0 512 512"><path fill="#fff" d="M437.019 74.981C388.667 26.629 324.38 0 256 0S123.333 26.629 74.981 74.981C26.628 123.333 0 187.62 0 256c0 29.27 4.902 57.98 14.569 85.332a8.016 8.016 0 0015.116-5.342c-9.059-25.632-13.652-52.545-13.652-79.99C16.033 123.682 123.682 16.033 256 16.033S495.967 123.682 495.967 256 388.318 495.967 256 495.967c-87.179 0-167.639-47.405-209.98-123.716a8.016 8.016 0 00-10.899-3.12 8.015 8.015 0 00-3.12 10.899C77.167 461.432 162.998 512 256 512c68.38 0 132.667-26.629 181.019-74.981C485.372 388.667 512 324.38 512 256s-26.628-132.667-74.981-181.019z"/><path fill="#fff" d="M388.479 128.005c-22.171-28.818-54.738-49.677-91.7-58.735-36.387-8.916-72.84-7.111-105.414 5.223-30.013 11.367-56.065 31.218-75.335 57.408-39.104 53.138-43.344 122.371-10.8 176.38 8.16 13.544 25.818 17.925 39.371 9.765 13.545-8.163 17.925-25.824 9.763-39.371-20.544-34.096-17.456-78.363 7.868-112.776 27.535-37.419 72.727-52.714 120.895-40.913 42.594 10.437 85.068 47.868 77.671 105.391-3.694 28.73-16.325 54.7-35.567 73.124-15.878 15.206-34.401 23.285-49.549 21.607-12.778-1.416-23.321-5.18-31.421-11.204 8.448-26.874 14.829-49.913 18.979-68.541 8.187-36.741 8.248-56.645.218-70.991-5.318-9.495-13.971-15.76-24.369-17.64-10.185-1.843-29.957-1.605-47.943 20.653-11.881 14.701-20.676 37.096-24.127 61.44-3.777 26.635-.828 53.528 8.306 75.728a115.336 115.336 0 004.979 10.555c-17.005 50.808-34.438 95.682-34.615 96.139-2.779 7.14-2.61 14.935.475 21.948 3.086 7.013 8.716 12.405 15.855 15.182a28.492 28.492 0 0010.383 1.958c.003 0 .007 0 .012-.002 11.919 0 22.414-7.179 26.748-18.322.55-1.421 12.767-32.971 26.568-72.485 12.986 6.592 27.616 10.818 43.629 12.594 32.298 3.585 67.119-9.97 95.545-37.188 28.678-27.462 47.426-65.547 52.787-107.24 5.17-40.196-4.931-78.125-29.212-109.687zm13.31 107.646c-4.896 38.07-21.934 72.769-47.974 97.704-24.987 23.925-55.124 35.888-82.689 32.833-17.27-1.915-32.598-7.013-45.557-15.154a8.017 8.017 0 00-11.844 4.177c-14.942 43.375-28.924 79.489-29.521 81.024-1.906 4.9-6.534 8.066-11.795 8.066h-.005a12.56 12.56 0 01-4.572-.866 12.572 12.572 0 01-6.993-6.696 12.566 12.566 0 01-.209-9.678c.184-.471 18.527-47.694 36.004-100.238a8.012 8.012 0 00-.671-6.548 98.683 98.683 0 01-5.813-11.826c-8.063-19.596-10.64-43.523-7.258-67.373 3.059-21.56 10.612-41.101 20.724-53.615 10.183-12.601 20.586-15.381 27.781-15.381 1.843 0 3.475.183 4.838.431 5.598 1.012 10.298 4.456 13.231 9.695 5.725 10.227 5.164 28.072-1.877 59.671-4.311 19.343-11.119 43.67-20.234 72.303a8.016 8.016 0 002.184 8.306c11.067 10.276 25.997 16.52 44.376 18.558 19.809 2.193 43.136-7.513 62.404-25.962 21.879-20.951 36.219-50.306 40.38-82.66 8.653-67.285-40.462-110.931-89.757-123.009-54.674-13.393-106.121 4.17-137.625 46.983-29.175 39.647-32.584 90.893-8.687 130.554 3.6 5.974 1.669 13.763-4.303 17.362-5.979 3.598-13.766 1.665-17.363-4.305-29.19-48.443-25.273-110.699 9.98-158.604 17.435-23.695 40.982-41.647 68.098-51.916 29.528-11.18 62.697-12.786 95.92-4.643 33.44 8.194 62.849 26.995 82.809 52.938 21.636 28.127 30.633 61.971 26.018 97.869z"/></svg>